<?xml version="1.0" encoding="UTF-8" standalone="no"?>
<svg
   xmlns:dc="http://purl.org/dc/elements/1.1/"
   xmlns:cc="http://creativecommons.org/ns#"
   xmlns:rdf="http://www.w3.org/1999/02/22-rdf-syntax-ns#"
   xmlns:svg="http://www.w3.org/2000/svg"
   xmlns="http://www.w3.org/2000/svg"
   xmlns:xlink="http://www.w3.org/1999/xlink"
   xmlns:sodipodi="http://sodipodi.sourceforge.net/DTD/sodipodi-0.dtd"
   xmlns:inkscape="http://www.inkscape.org/namespaces/inkscape"
   width="86.262932"
   height="86.263374"
   viewBox="0 0 22.823735 22.823852"
   version="1.1"
   id="svg8"
   inkscape:version="1.0.1 (unknown)"
   sodipodi:docname="MoonZaphire.svg">
  <defs
     id="defs2">
    <linearGradient
       inkscape:collect="always"
       id="linearGradient1971">
      <stop
         style="stop-color:#076dff;stop-opacity:1"
         offset="0"
         id="stop1967" />
      <stop
         style="stop-color:#13f5ff;stop-opacity:1"
         offset="1"
         id="stop1969" />
    </linearGradient>
    <linearGradient
       id="linearGradient1447"
       inkscape:collect="always">
      <stop
         id="stop1443"
         offset="0"
         style="stop-color:#56ceff;stop-opacity:0.04166667" />
      <stop
         id="stop1445"
         offset="1"
         style="stop-color:#005cff;stop-opacity:1" />
    </linearGradient>
    <linearGradient
       inkscape:collect="always"
       id="linearGradient1165">
      <stop
         style="stop-color:#ffffff;stop-opacity:1"
         offset="0"
         id="stop1161" />
      <stop
         style="stop-color:#ffffff;stop-opacity:0;"
         offset="1"
         id="stop1163" />
    </linearGradient>
    <linearGradient
       inkscape:collect="always"
       id="linearGradient1141">
      <stop
         style="stop-color:#56ceff;stop-opacity:1"
         offset="0"
         id="stop1137" />
      <stop
         style="stop-color:#005cff;stop-opacity:1"
         offset="1"
         id="stop1139" />
    </linearGradient>
    <linearGradient
       inkscape:collect="always"
       xlink:href="#linearGradient1141"
       id="linearGradient1143"
       x1="202.45667"
       y1="65.410957"
       x2="171.72067"
       y2="134.09923"
       gradientUnits="userSpaceOnUse"
       gradientTransform="matrix(0.19283582,0,0,0.17903954,-21.265626,267.29597)" />
    <clipPath
       clipPathUnits="userSpaceOnUse"
       id="clipPath1157">
      <rect
         style="opacity:1;fill:#ffffff;fill-opacity:1;stroke:none;stroke-width:0.436035;stroke-opacity:0.416667"
         id="rect1159"
         width="110.92579"
         height="30.684076"
         x="42.04213"
         y="110.50245"
         ry="0"
         transform="matrix(0.75654191,-0.65394521,0.52944272,0.84834569,0,0)" />
    </clipPath>
    <linearGradient
       inkscape:collect="always"
       xlink:href="#linearGradient1165"
       id="linearGradient1167"
       x1="166.22028"
       y1="29.023983"
       x2="105.41644"
       y2="78.201576"
       gradientUnits="userSpaceOnUse" />
    <linearGradient
       inkscape:collect="always"
       xlink:href="#linearGradient1165"
       id="linearGradient1169"
       gradientUnits="userSpaceOnUse"
       x1="166.22028"
       y1="29.023983"
       x2="105.41644"
       y2="78.201576" />
    <linearGradient
       inkscape:collect="always"
       xlink:href="#linearGradient1165"
       id="linearGradient1171"
       gradientUnits="userSpaceOnUse"
       x1="166.22028"
       y1="29.023983"
       x2="105.41644"
       y2="78.201576" />
    <linearGradient
       inkscape:collect="always"
       xlink:href="#linearGradient1447"
       id="linearGradient1265"
       gradientUnits="userSpaceOnUse"
       x1="202.45667"
       y1="65.410957"
       x2="171.72067"
       y2="134.09923"
       gradientTransform="translate(-0.08058,-0.5310803)" />
    <filter
       inkscape:collect="always"
       style="color-interpolation-filters:sRGB"
       id="filter1953"
       x="-0.124929"
       width="1.249858"
       y="-0.093265787"
       height="1.1865315">
      <feGaussianBlur
         inkscape:collect="always"
         stdDeviation="2.8311837"
         id="feGaussianBlur1955" />
    </filter>
    <linearGradient
       inkscape:collect="always"
       xlink:href="#linearGradient1971"
       id="linearGradient1973"
       x1="128.13393"
       y1="145.80952"
       x2="195.03572"
       y2="94.215775"
       gradientUnits="userSpaceOnUse"
       gradientTransform="matrix(0.19283582,0,0,0.192837,-21.469711,266.40279)" />
    <filter
       inkscape:collect="always"
       style="color-interpolation-filters:sRGB"
       id="filter2013"
       x="-0.086156309"
       width="1.1723126"
       y="-0.069276758"
       height="1.1385535">
      <feGaussianBlur
         inkscape:collect="always"
         stdDeviation="1.9525036"
         id="feGaussianBlur2015" />
    </filter>
    <filter
       inkscape:collect="always"
       style="color-interpolation-filters:sRGB"
       id="filter1016"
       x="-0.10231514"
       width="1.2046303"
       y="-0.10231453"
       height="1.2046291">
      <feGaussianBlur
         inkscape:collect="always"
         stdDeviation="0.83765121"
         id="feGaussianBlur1018" />
    </filter>
  </defs>
  <sodipodi:namedview
     id="base"
     pagecolor="#ffffff"
     bordercolor="#666666"
     borderopacity="1.0"
     inkscape:pageopacity="0.0"
     inkscape:pageshadow="2"
     inkscape:zoom="3.959798"
     inkscape:cx="77.498343"
     inkscape:cy="61.870896"
     inkscape:document-units="mm"
     inkscape:current-layer="layer1"
     showgrid="false"
     inkscape:snap-global="true"
     inkscape:window-width="1920"
     inkscape:window-height="1022"
     inkscape:window-x="0"
     inkscape:window-y="27"
     inkscape:window-maximized="1"
     units="px"
     width="512px"
     inkscape:document-rotation="0"
     fit-margin-top="6"
     fit-margin-right="6"
     fit-margin-bottom="6"
     fit-margin-left="6" />
  <metadata
     id="metadata5">
    <rdf:RDF>
      <cc:Work
         rdf:about="">
        <dc:format>image/svg+xml</dc:format>
        <dc:type
           rdf:resource="http://purl.org/dc/dcmitype/StillImage" />
        <dc:title></dc:title>
      </cc:Work>
    </rdf:RDF>
  </metadata>
  <g
     inkscape:label="Capa 1"
     inkscape:groupmode="layer"
     id="layer1"
     transform="translate(-2.5454126,-273.08743)">
    <ellipse
       style="opacity:0.15263217;fill:#00082a;fill-opacity:1;stroke:none;stroke-width:0.0590796;stroke-opacity:0.416667;filter:url(#filter1016)"
       id="ellipse866"
       cx="13.957279"
       cy="285.55771"
       inkscape:export-xdpi="199"
       inkscape:export-ydpi="199"
       rx="9.8243666"
       ry="9.8244257" />
    <ellipse
       style="opacity:1;fill:url(#linearGradient1973);fill-opacity:1;stroke:none;stroke-width:0.0590796;stroke-opacity:0.416667"
       id="path1965"
       cx="13.957279"
       cy="284.49936"
       inkscape:export-xdpi="199"
       inkscape:export-ydpi="199"
       rx="9.8243666"
       ry="9.8244257" />
    <path
       sodipodi:nodetypes="cscscsccccccccccccccsccc"
       inkscape:connector-curvature="0"
       id="path1173"
       d="m 183.18258,130.23749 c -0.0383,-0.039 -4.13703,-1.43158 -9.1082,-3.09468 l -9.03849,-3.02381 -4.37182,-6.52009 c -2.85712,-4.26109 -4.3719,-6.60194 -4.37205,-6.75633 -1.3e-4,-0.12992 0.71588,-5.70445 1.59113,-12.387822 l 1.59137,-12.151596 5.09318,-8.730636 5.09319,-8.730636 6.85082,-5.688727 6.85082,-5.688729 c 0.189,-0.01296 0.189,-0.01296 0.189,-0.01296 l 6.85678,5.694257 6.85679,5.694257 5.09181,8.73063 5.09181,8.730631 1.61646,12.341543 1.61646,12.341538 -4.39913,6.57458 -4.39914,6.57458 -9.02418,3.00463 c -4.9633,1.65255 -9.06458,3.0419 -9.11395,3.08744 -0.10986,0.10133 -0.46727,0.10891 -0.56265,0.0119 z"
       style="opacity:1;fill:url(#linearGradient1265);fill-opacity:1;stroke:none;stroke-width:0.0944941;stroke-opacity:0.416667;filter:url(#filter1953)"
       transform="matrix(0.19283581,0,0,0.17903948,-21.265626,267.29596)"
       inkscape:export-xdpi="199"
       inkscape:export-ydpi="199" />
    <path
       sodipodi:nodetypes="cscscsccccccccccccccsccc"
       inkscape:connector-curvature="0"
       id="path1975"
       d="m 104.64408,167.24323 c -0.0383,-0.0362 -4.13704,-1.32915 -9.1082,-2.87326 l -9.038475,-2.80746 -4.3718,-6.05358 c -2.85712,-3.9562 -4.3719,-6.12957 -4.37205,-6.27291 -1.3e-4,-0.12063 0.71588,-5.2963 1.59113,-11.50147 l 1.59137,-11.28216 5.093163,-8.10596 5.093181,-8.10596 6.850814,-5.2817 6.850817,-5.281698 c 0.189,-0.01203 0.189,-0.01203 0.189,-0.01203 l 6.85678,5.286838 6.85679,5.28683 5.09181,8.10595 5.09181,8.10596 1.61646,11.45851 1.61646,11.4585 -4.39913,6.10417 -4.39914,6.10417 -9.02418,2.78965 c -4.9633,1.53431 -9.06458,2.82425 -9.11395,2.86653 -0.10986,0.0941 -0.46727,0.10112 -0.56265,0.011 z"
       style="opacity:0;fill:#000000;fill-opacity:1;stroke:none;stroke-width:0.0910508;stroke-opacity:0.416667;filter:url(#filter2013)"
       inkscape:export-xdpi="199"
       inkscape:export-ydpi="199"
       transform="matrix(0.19283581,0,0,0.19283698,-6.1050455,258.45801)" />
    <path
       style="opacity:1;fill:url(#linearGradient1143);fill-opacity:1;stroke:none;stroke-width:0.0175579;stroke-opacity:0.416667"
       d="m 14.074076,290.7087 c -0.0074,-0.007 -0.797769,-0.2563 -1.756386,-0.55407 l -1.742941,-0.54138 -0.8430396,-1.16736 c -0.5509566,-0.76289 -0.8430593,-1.182 -0.8430893,-1.20964 -2.5e-5,-0.0233 0.138048,-1.02133 0.3068297,-2.21791 l 0.30687,-2.17562 0.9821472,-1.56313 0.982148,-1.56313 1.321082,-1.0185 1.321081,-1.01851 c 0.03644,-0.002 0.03644,-0.002 0.03644,-0.002 l 1.322227,1.01949 1.322236,1.0195 0.981883,1.56312 0.981888,1.56314 0.311714,2.20962 0.311704,2.20962 -0.848304,1.17711 -0.848315,1.17711 -1.740184,0.53795 c -0.957107,0.29587 -1.747973,0.54462 -1.757501,0.55277 -0.02115,0.0181 -0.0901,0.0195 -0.108494,0.002 z"
       id="path1135"
       inkscape:connector-curvature="0"
       sodipodi:nodetypes="cscscsccccccccccccccsccc"
       inkscape:export-xdpi="199"
       inkscape:export-ydpi="199" />
    <g
       id="g1155"
       clip-path="url(#clipPath1157)"
       transform="matrix(0.19283581,0,0,0.17903948,-6.3409091,272.06504)"
       style="fill:url(#linearGradient1167);fill-opacity:1"
       inkscape:export-xdpi="199"
       inkscape:export-ydpi="199">
      <path
         style="fill:url(#linearGradient1169);fill-opacity:1;stroke:none;stroke-width:0.215792px;stroke-linecap:butt;stroke-linejoin:miter;stroke-opacity:1"
         d="m 119.95567,42.207328 10.17772,17.458828 3.2341,24.726464 -8.81989,13.15612 -18.68738,6.24763 0.24578,-73.09494 z"
         id="path829"
         inkscape:connector-curvature="0"
         sodipodi:nodetypes="ccccccc" />
      <path
         sodipodi:nodetypes="ccccccc"
         inkscape:connector-curvature="0"
         id="path1133"
         d="M 92.25633,42.207328 82.07861,59.666156 78.84451,84.39262 87.6644,97.54874 106.35178,103.79637 106.106,30.70143 Z"
         style="fill:url(#linearGradient1171);fill-opacity:1;stroke:none;stroke-width:0.215792px;stroke-linecap:butt;stroke-linejoin:miter;stroke-opacity:1" />
    </g>
    <path
       sodipodi:type="star"
       style="opacity:1;fill:#ffffff;fill-opacity:1;stroke:none;stroke-width:0.0583128;stroke-opacity:0.416667"
       id="path1957"
       sodipodi:sides="4"
       sodipodi:cx="191.4912"
       sodipodi:cy="71.773743"
       sodipodi:r1="6.7616186"
       sodipodi:r2="1.1524976"
       sodipodi:arg1="0.35877067"
       sodipodi:arg2="1.1441688"
       inkscape:flatsided="false"
       inkscape:rounded="0"
       inkscape:randomized="0"
       d="m 197.8223,74.147905 -5.8542,-1.324967 -2.85107,5.281905 1.32497,-5.854193 -5.28191,-2.85107 5.8542,1.324967 2.85107,-5.281905 -1.32497,5.854194 z"
       inkscape:transform-center-x="0.017963698"
       inkscape:transform-center-y="0.022453036"
       transform="matrix(0.19283581,0,0,0.19918664,-21.265626,265.97747)"
       inkscape:export-xdpi="199"
       inkscape:export-ydpi="199" />
    <path
       inkscape:transform-center-y="0.0077589554"
       inkscape:transform-center-x="-0.0088161201"
       d="m 194.42052,93.991655 -5.8542,-1.324967 -2.85107,5.281905 1.32497,-5.854193 -5.2819,-2.85107 5.85419,1.324967 2.85107,-5.281905 -1.32497,5.854194 z"
       inkscape:randomized="0"
       inkscape:rounded="0"
       inkscape:flatsided="false"
       sodipodi:arg2="1.1441688"
       sodipodi:arg1="0.35877067"
       sodipodi:r2="1.1524976"
       sodipodi:r1="6.7616186"
       sodipodi:cy="91.617493"
       sodipodi:cx="188.08942"
       sodipodi:sides="4"
       id="path1959"
       style="opacity:1;fill:#ffffff;fill-opacity:1;stroke:none;stroke-width:0.0583128;stroke-opacity:0.416667"
       sodipodi:type="star"
       transform="matrix(-3.3958605e-4,-0.08381686,0.07789601,-3.6539817e-4,9.5352828,295.95187)"
       inkscape:export-xdpi="199"
       inkscape:export-ydpi="199" />
  </g>
</svg>
