<?xml version="1.0" encoding="UTF-8" standalone="no"?>
<svg
   xmlns:dc="http://purl.org/dc/elements/1.1/"
   xmlns:cc="http://creativecommons.org/ns#"
   xmlns:rdf="http://www.w3.org/1999/02/22-rdf-syntax-ns#"
   xmlns:svg="http://www.w3.org/2000/svg"
   xmlns="http://www.w3.org/2000/svg"
   xmlns:xlink="http://www.w3.org/1999/xlink"
   xmlns:sodipodi="http://sodipodi.sourceforge.net/DTD/sodipodi-0.dtd"
   xmlns:inkscape="http://www.inkscape.org/namespaces/inkscape"
   width="63.010365mm"
   height="23.384453mm"
   viewBox="0 0 63.010364 23.384453"
   version="1.1"
   id="svg8"
   sodipodi:docname="MOONZAPHIRE_LOGOTYPE.svg"
   inkscape:version="1.0.1 (unknown)">
  <defs
     id="defs2">
    <clipPath
       clipPathUnits="userSpaceOnUse"
       id="clipPath1157">
      <rect
         style="opacity:1;fill:#ffffff;fill-opacity:1;stroke:none;stroke-width:0.436035;stroke-opacity:0.416667"
         id="rect1159"
         width="110.92579"
         height="30.684076"
         x="42.04213"
         y="110.50245"
         ry="0"
         transform="matrix(0.75654191,-0.65394521,0.52944272,0.84834569,0,0)" />
    </clipPath>
    <linearGradient
       inkscape:collect="always"
       id="linearGradient1971">
      <stop
         style="stop-color:#076dff;stop-opacity:1"
         offset="0"
         id="stop1967" />
      <stop
         style="stop-color:#13f5ff;stop-opacity:1"
         offset="1"
         id="stop1969" />
    </linearGradient>
    <linearGradient
       id="linearGradient1447"
       inkscape:collect="always">
      <stop
         id="stop1443"
         offset="0"
         style="stop-color:#56ceff;stop-opacity:0.04166667" />
      <stop
         id="stop1445"
         offset="1"
         style="stop-color:#005cff;stop-opacity:1" />
    </linearGradient>
    <linearGradient
       inkscape:collect="always"
       id="linearGradient1165">
      <stop
         style="stop-color:#ffffff;stop-opacity:1"
         offset="0"
         id="stop1161" />
      <stop
         style="stop-color:#ffffff;stop-opacity:0;"
         offset="1"
         id="stop1163" />
    </linearGradient>
    <linearGradient
       inkscape:collect="always"
       id="linearGradient1141">
      <stop
         style="stop-color:#56ceff;stop-opacity:1"
         offset="0"
         id="stop1137" />
      <stop
         style="stop-color:#005cff;stop-opacity:1"
         offset="1"
         id="stop1139" />
    </linearGradient>
    <linearGradient
       inkscape:collect="always"
       xlink:href="#linearGradient1141"
       id="linearGradient1143"
       x1="202.45667"
       y1="65.410957"
       x2="171.72067"
       y2="134.09923"
       gradientUnits="userSpaceOnUse"
       gradientTransform="matrix(0.18144122,0,0,0.16846016,2.6777989,72.337896)" />
    <clipPath
       clipPathUnits="userSpaceOnUse"
       id="clipPath1157-0">
      <rect
         style="opacity:1;fill:#ffffff;fill-opacity:1;stroke:none;stroke-width:0.436035;stroke-opacity:0.416667"
         id="rect1159-8"
         width="110.92579"
         height="30.684076"
         x="42.04213"
         y="110.50245"
         ry="0"
         transform="matrix(0.75654191,-0.65394521,0.52944272,0.84834569,0,0)" />
    </clipPath>
    <linearGradient
       inkscape:collect="always"
       xlink:href="#linearGradient1165"
       id="linearGradient1167"
       x1="166.22028"
       y1="29.023983"
       x2="105.41644"
       y2="78.201576"
       gradientUnits="userSpaceOnUse" />
    <linearGradient
       inkscape:collect="always"
       xlink:href="#linearGradient1447"
       id="linearGradient1265"
       gradientUnits="userSpaceOnUse"
       x1="202.45667"
       y1="65.410957"
       x2="171.72067"
       y2="134.09923"
       gradientTransform="translate(-0.08058,-0.5310803)" />
    <filter
       inkscape:collect="always"
       style="color-interpolation-filters:sRGB"
       id="filter1953"
       x="-0.124929"
       width="1.249858"
       y="-0.093265787"
       height="1.1865315">
      <feGaussianBlur
         inkscape:collect="always"
         stdDeviation="2.8311837"
         id="feGaussianBlur1955" />
    </filter>
    <linearGradient
       inkscape:collect="always"
       xlink:href="#linearGradient1971"
       id="linearGradient1973"
       x1="128.13393"
       y1="145.80952"
       x2="195.03572"
       y2="94.215775"
       gradientUnits="userSpaceOnUse"
       gradientTransform="matrix(0.18144122,0,0,0.18144233,2.4857732,71.497494)" />
    <filter
       inkscape:collect="always"
       style="color-interpolation-filters:sRGB"
       id="filter2013"
       x="-0.086156309"
       width="1.1723126"
       y="-0.069276758"
       height="1.1385535">
      <feGaussianBlur
         inkscape:collect="always"
         stdDeviation="1.9525036"
         id="feGaussianBlur2015" />
    </filter>
    <filter
       inkscape:collect="always"
       style="color-interpolation-filters:sRGB"
       id="filter1016"
       x="-0.10231514"
       width="1.2046303"
       y="-0.10231453"
       height="1.2046291">
      <feGaussianBlur
         inkscape:collect="always"
         stdDeviation="0.83765121"
         id="feGaussianBlur1018" />
    </filter>
    <linearGradient
       inkscape:collect="always"
       xlink:href="#linearGradient1165"
       id="linearGradient1217"
       gradientUnits="userSpaceOnUse"
       x1="166.22028"
       y1="29.023983"
       x2="105.41644"
       y2="78.201576" />
    <linearGradient
       inkscape:collect="always"
       xlink:href="#linearGradient1165"
       id="linearGradient1219"
       gradientUnits="userSpaceOnUse"
       x1="166.22028"
       y1="29.023983"
       x2="105.41644"
       y2="78.201576" />
    <filter
       inkscape:collect="always"
       style="color-interpolation-filters:sRGB"
       id="filter1519"
       x="-0.090892255"
       width="1.1817845"
       y="-0.20272276"
       height="1.4054455">
      <feGaussianBlur
         inkscape:collect="always"
         stdDeviation="1.3635372"
         id="feGaussianBlur1521" />
    </filter>
  </defs>
  <sodipodi:namedview
     id="base"
     pagecolor="#ffffff"
     bordercolor="#666666"
     borderopacity="1.0"
     inkscape:pageopacity="0.0"
     inkscape:pageshadow="2"
     inkscape:zoom="1.979899"
     inkscape:cx="121.09398"
     inkscape:cy="33.339912"
     inkscape:document-units="mm"
     inkscape:current-layer="text987"
     inkscape:document-rotation="0"
     showgrid="false"
     inkscape:window-width="1411"
     inkscape:window-height="1053"
     inkscape:window-x="0"
     inkscape:window-y="27"
     inkscape:window-maximized="0" />
  <metadata
     id="metadata5">
    <rdf:RDF>
      <cc:Work
         rdf:about="">
        <dc:format>image/svg+xml</dc:format>
        <dc:type
           rdf:resource="http://purl.org/dc/dcmitype/StillImage" />
      </cc:Work>
    </rdf:RDF>
  </metadata>
  <g
     inkscape:label="Layer 1"
     inkscape:groupmode="layer"
     id="layer1"
     transform="translate(-23.866138,-77.023231)">
    <path
       id="ellipse866"
       style="opacity:0.152632;fill:#00082a;fill-opacity:1;stroke:none;stroke-width:0.0590796;stroke-opacity:0.416667;filter:url(#filter1016)"
       transform="matrix(0.94091037,0,0,0.94091037,3.2531665,7.2876808)"
       d="m 44.435771,87.397141 a 9.8243666,9.8244257 0 0 1 -9.824367,9.824425 9.8243666,9.8244257 0 0 1 -9.824366,-9.824425 9.8243666,9.8244257 0 0 1 9.824366,-9.824426 9.8243666,9.8244257 0 0 1 9.824367,9.824426 z" />
    <path
       id="path1965"
       style="fill:url(#linearGradient1973);fill-opacity:1;stroke:none;stroke-width:0.0555886;stroke-opacity:0.416667"
       d="m 45.063244,88.524743 a 9.2438482,9.2439039 0 0 1 -9.243847,9.243904 9.2438482,9.2439039 0 0 1 -9.243849,-9.243904 9.2438482,9.2439039 0 0 1 9.243849,-9.243904 9.2438482,9.2439039 0 0 1 9.243847,9.243904 z" />
    <path
       sodipodi:nodetypes="cscscsccccccccccccccsccc"
       inkscape:connector-curvature="0"
       id="path1173"
       d="m 183.18258,130.23749 c -0.0383,-0.039 -4.13703,-1.43158 -9.1082,-3.09468 l -9.03849,-3.02381 -4.37182,-6.52009 c -2.85712,-4.26109 -4.3719,-6.60194 -4.37205,-6.75633 -1.3e-4,-0.12992 0.71588,-5.70445 1.59113,-12.387822 l 1.59137,-12.151596 5.09318,-8.730636 5.09319,-8.730636 6.85082,-5.688727 6.85082,-5.688729 c 0.189,-0.01296 0.189,-0.01296 0.189,-0.01296 l 6.85678,5.694257 6.85679,5.694257 5.09181,8.73063 5.09181,8.730631 1.61646,12.341543 1.61646,12.341538 -4.39913,6.57458 -4.39914,6.57458 -9.02418,3.00463 c -4.9633,1.65255 -9.06458,3.0419 -9.11395,3.08744 -0.10986,0.10133 -0.46727,0.10891 -0.56265,0.0119 z"
       style="fill:url(#linearGradient1265);fill-opacity:1;stroke:none;stroke-width:0.0944941;stroke-opacity:0.416667;filter:url(#filter1953)"
       transform="matrix(0.18144121,0,0,0.16846011,2.6777988,72.337887)"
       inkscape:export-xdpi="199"
       inkscape:export-ydpi="199" />
    <path
       sodipodi:nodetypes="cscscsccccccccccccccsccc"
       inkscape:connector-curvature="0"
       id="path1975"
       d="m 104.64408,167.24323 c -0.0383,-0.0362 -4.13704,-1.32915 -9.1082,-2.87326 l -9.038475,-2.80746 -4.3718,-6.05358 c -2.85712,-3.9562 -4.3719,-6.12957 -4.37205,-6.27291 -1.3e-4,-0.12063 0.71588,-5.2963 1.59113,-11.50147 l 1.59137,-11.28216 5.093163,-8.10596 5.093181,-8.10596 6.850814,-5.2817 6.850817,-5.281698 c 0.189,-0.01203 0.189,-0.01203 0.189,-0.01203 l 6.85678,5.286838 6.85679,5.28683 5.09181,8.10595 5.09181,8.10596 1.61646,11.45851 1.61646,11.4585 -4.39913,6.10417 -4.39914,6.10417 -9.02418,2.78965 c -4.9633,1.53431 -9.06458,2.82425 -9.11395,2.86653 -0.10986,0.0941 -0.46727,0.10112 -0.56265,0.011 z"
       style="opacity:0;fill:#000000;fill-opacity:1;stroke:none;stroke-width:0.0910508;stroke-opacity:0.416667;filter:url(#filter2013)"
       inkscape:export-xdpi="199"
       inkscape:export-ydpi="199"
       transform="matrix(0.18144121,0,0,0.18144231,16.942546,64.022168)" />
    <path
       style="fill:url(#linearGradient1143);fill-opacity:1;stroke:none;stroke-width:0.0165204;stroke-opacity:0.416667"
       d="m 35.929291,94.367177 c -0.0069,-0.0066 -0.750629,-0.241156 -1.652602,-0.52133 l -1.639951,-0.50939 -0.793225,-1.098382 c -0.518401,-0.717811 -0.793243,-1.112156 -0.793271,-1.138162 -2.4e-5,-0.02193 0.12989,-0.96098 0.288699,-2.086855 l 0.288737,-2.047063 0.924113,-1.470766 0.924112,-1.470765 1.24302,-0.958317 1.243019,-0.958327 c 0.03429,-0.0019 0.03429,-0.0019 0.03429,-0.0019 l 1.244097,0.959249 1.244106,0.959258 0.923863,1.470755 0.92387,1.470775 0.293294,2.079054 0.293286,2.079055 -0.798178,1.107555 -0.798189,1.107555 -1.637357,0.506162 c -0.900552,0.278388 -1.644685,0.512439 -1.65365,0.520107 -0.0199,0.01703 -0.08478,0.01835 -0.102084,0.0019 z"
       id="path1135"
       inkscape:connector-curvature="0"
       sodipodi:nodetypes="cscscsccccccccccccccsccc"
       inkscape:export-xdpi="199"
       inkscape:export-ydpi="199" />
    <g
       id="g1155"
       clip-path="url(#clipPath1157-0)"
       transform="matrix(0.18144121,0,0,0.16846011,16.72062,76.825163)"
       style="fill:url(#linearGradient1167);fill-opacity:1"
       inkscape:export-xdpi="199"
       inkscape:export-ydpi="199">
      <path
         style="fill:url(#linearGradient1217);fill-opacity:1;stroke:none;stroke-width:0.215792px;stroke-linecap:butt;stroke-linejoin:miter;stroke-opacity:1"
         d="m 119.95567,42.207328 10.17772,17.458828 3.2341,24.726464 -8.81989,13.15612 -18.68738,6.24763 0.24578,-73.09494 z"
         id="path829"
         inkscape:connector-curvature="0"
         sodipodi:nodetypes="ccccccc" />
      <path
         sodipodi:nodetypes="ccccccc"
         inkscape:connector-curvature="0"
         id="path1133"
         d="M 92.25633,42.207328 82.07861,59.666156 78.84451,84.39262 87.6644,97.54874 106.35178,103.79637 106.106,30.70143 Z"
         style="fill:url(#linearGradient1219);fill-opacity:1;stroke:none;stroke-width:0.215792px;stroke-linecap:butt;stroke-linejoin:miter;stroke-opacity:1" />
    </g>
    <path
       id="path1957"
       style="fill:#ffffff;fill-opacity:1;stroke:none;stroke-width:0.0107531;stroke-opacity:0.416667"
       inkscape:transform-center-x="0.016902488"
       inkscape:transform-center-y="0.021126152"
       d="m 38.570917,84.993867 -1.062194,-0.248321 -0.517302,0.989917 0.240406,-1.097173 -0.958357,-0.534339 1.062193,0.248321 0.517302,-0.989917 -0.240404,1.097174 z" />
    <path
       id="path1959"
       style="fill:#ffffff;fill-opacity:1;stroke:none;stroke-width:0.00443343;stroke-opacity:0.416667"
       inkscape:transform-center-x="-0.0082956939"
       inkscape:transform-center-y="0.0073016108"
       d="m 38.485517,83.935406 -0.09524,0.462142 0.388039,0.223031 -0.429496,-0.102479 -0.207277,0.417532 0.09524,-0.462141 -0.388039,-0.223032 0.429496,0.10248 z" />
    <g
       aria-label="Moon
Zaphire"
       id="text987"
       style="font-size:10.2233px;line-height:0.75;font-family:'Atkinson Hyperlegible';-inkscape-font-specification:'Atkinson Hyperlegible';fill:#00193f;fill-opacity:1;stroke-width:0.255584">
      <path
         id="path1469"
         style="font-style:normal;font-variant:normal;font-weight:bold;font-stretch:normal;font-family:'Atkinson Hyperlegible';-inkscape-font-specification:'Atkinson Hyperlegible Bold';opacity:0.200726;fill:#000b1b;fill-opacity:1;stroke-width:0.255584;filter:url(#filter1519)"
         d="m 47.722438,82.050846 v 6.82904 h 1.564245 v -5.367114 l 1.615406,5.367114 h 1.329119 l 1.625224,-5.367114 v 5.367114 h 1.57458 v -6.82904 h -2.423107 l -1.441257,4.896858 -1.421101,-4.896858 z m 11.092346,1.615405 c -0.354406,0 -0.695015,0.05477 -1.022159,0.163814 -0.320331,0.102233 -0.606687,0.261977 -0.858862,0.480074 -0.245361,0.218098 -0.442788,0.494413 -0.59273,0.828373 -0.143126,0.333962 -0.214974,0.729334 -0.214974,1.185975 0,0.45664 0.07185,0.855016 0.214974,1.195792 0.149942,0.333962 0.347369,0.610277 0.59273,0.828374 0.252175,0.218097 0.538531,0.38136 0.858862,0.490409 0.327144,0.109049 0.667753,0.163814 1.022159,0.163814 0.347591,0 0.681675,-0.05477 1.002006,-0.163814 0.327147,-0.109049 0.613503,-0.272312 0.858862,-0.490409 0.245358,-0.218097 0.442788,-0.494412 0.59273,-0.828374 0.149942,-0.340776 0.224793,-0.739152 0.224793,-1.195792 0,-0.456641 -0.07485,-0.852013 -0.224793,-1.185975 -0.149942,-0.33396 -0.347372,-0.610275 -0.59273,-0.828373 -0.245359,-0.218097 -0.531715,-0.377841 -0.858862,-0.480074 -0.320331,-0.109048 -0.654415,-0.163814 -1.002006,-0.163814 z m 5.858042,0 c -0.35441,0 -0.695016,0.05477 -1.02216,0.163814 -0.320331,0.102233 -0.606689,0.261977 -0.858864,0.480074 -0.245358,0.218098 -0.442788,0.494413 -0.592727,0.828373 -0.143126,0.333962 -0.214974,0.729334 -0.214974,1.185975 0,0.45664 0.07185,0.855016 0.214974,1.195792 0.149939,0.333962 0.347369,0.610277 0.592727,0.828374 0.252175,0.218097 0.538533,0.38136 0.858864,0.490409 0.327144,0.109049 0.66775,0.163814 1.02216,0.163814 0.347591,0 0.681675,-0.05477 1.002006,-0.163814 0.327144,-0.109049 0.613503,-0.272312 0.858861,-0.490409 0.245359,-0.218097 0.442788,-0.494412 0.592728,-0.828374 0.149942,-0.340776 0.224792,-0.739152 0.224792,-1.195792 0,-0.456641 -0.07485,-0.852013 -0.224792,-1.185975 -0.14994,-0.33396 -0.347369,-0.610275 -0.592728,-0.828373 -0.245358,-0.218097 -0.531717,-0.377841 -0.858861,-0.480074 -0.320331,-0.109048 -0.654415,-0.163814 -1.002006,-0.163814 z m 6.553086,0 c -0.190833,0 -0.371179,0.02712 -0.541568,0.08165 -0.163573,0.04771 -0.31379,0.112517 -0.450101,0.194303 -0.129495,0.07497 -0.245033,0.160381 -0.347266,0.255799 -0.09541,0.09542 -0.170783,0.19087 -0.225311,0.286287 l -0.194302,-0.674894 h -1.359606 v 5.070491 h 1.553908 v -2.606559 c 3e-6,-0.463457 0.07537,-0.811102 0.225311,-1.04283 0.149942,-0.238544 0.388057,-0.358118 0.715201,-0.358118 0.18402,0 0.3272,0.03416 0.429432,0.102319 0.109051,0.06816 0.18742,0.163608 0.235127,0.286288 0.05453,0.115864 0.08517,0.255523 0.09199,0.419095 0.01363,0.156758 0.02067,0.324058 0.02067,0.501262 v 2.698543 h 1.553912 v -3.08715 c 0,-0.340776 -0.02712,-0.644216 -0.08165,-0.910022 -0.05452,-0.265806 -0.149979,-0.487355 -0.28629,-0.664559 -0.129495,-0.184019 -0.303318,-0.320158 -0.521414,-0.40876 -0.218096,-0.09542 -0.490892,-0.143144 -0.818039,-0.143144 z m -12.411128,1.206128 c 0.149942,0 0.289603,0.02764 0.419098,0.08217 0.13631,0.04771 0.252364,0.129082 0.347781,0.244946 0.10223,0.109049 0.180602,0.259267 0.235127,0.450101 0.06134,0.18402 0.09199,0.409089 0.09199,0.674895 0,0.531611 -0.105497,0.909901 -0.316777,1.134814 -0.204465,0.224913 -0.463698,0.33693 -0.777214,0.33693 -0.320328,0 -0.586086,-0.112017 -0.797367,-0.33693 -0.204467,-0.224913 -0.30644,-0.603203 -0.30644,-1.134814 0,-0.265806 0.02712,-0.490875 0.08165,-0.674895 0.06134,-0.190834 0.13971,-0.341052 0.235127,-0.450101 0.102232,-0.115866 0.22129,-0.19724 0.3576,-0.244946 0.136311,-0.05453 0.27949,-0.08217 0.429432,-0.08217 z m 5.858042,0 c 0.149942,0 0.2896,0.02764 0.419095,0.08217 0.13631,0.04771 0.252364,0.129082 0.347781,0.244946 0.102232,0.109049 0.180602,0.259267 0.23513,0.450101 0.06134,0.18402 0.09198,0.409089 0.09198,0.674895 0,0.531611 -0.105494,0.909901 -0.316775,1.134814 -0.204467,0.224913 -0.4637,0.33693 -0.777213,0.33693 -0.320331,0 -0.586087,-0.112017 -0.79737,-0.33693 -0.204464,-0.224913 -0.306956,-0.603203 -0.306956,-1.134814 0,-0.265806 0.02764,-0.490875 0.08217,-0.674895 0.06134,-0.190834 0.139708,-0.341052 0.235128,-0.450101 0.102232,-0.115866 0.221289,-0.19724 0.3576,-0.244946 0.136311,-0.05453 0.27949,-0.08217 0.429432,-0.08217 z m 8.33179,4.455025 c -0.25899,0 -0.47702,0.08893 -0.654225,0.266134 -0.177205,0.177204 -0.265615,0.395232 -0.265615,0.654223 0,0.252174 0.08841,0.470204 0.265615,0.654224 0.177205,0.177206 0.395235,0.265617 0.654225,0.265617 0.25899,0 0.47702,-0.08841 0.654224,-0.265617 0.177205,-0.18402 0.266134,-0.40205 0.266134,-0.654224 0,-0.258991 -0.08893,-0.477019 -0.266134,-0.654223 -0.177204,-0.177205 -0.395234,-0.266134 -0.654224,-0.266134 z m -25.251172,0.391191 v 1.421102 h 3.29179 l -3.445269,4.170804 v 1.237134 h 5.694227 V 95.126533 H 49.72645 l 3.414779,-4.171321 v -1.236617 z m 18.074865,0 v 6.82904 h 1.553911 v -2.607076 c 0,-0.463457 0.07485,-0.811102 0.224793,-1.04283 0.149942,-0.238544 0.388572,-0.357601 0.715719,-0.357601 0.184017,0 0.327197,0.03416 0.429429,0.102319 0.109051,0.06816 0.187423,0.163608 0.23513,0.286288 0.05452,0.115864 0.08517,0.255523 0.09198,0.419095 0.01363,0.156758 0.02015,0.323541 0.02015,0.500745 v 2.69906 h 1.553911 v -3.087667 c 0,-0.340776 -0.02712,-0.643699 -0.08165,-0.909505 -0.05452,-0.265806 -0.149976,-0.487355 -0.286287,-0.664559 -0.129495,-0.184019 -0.303318,-0.320675 -0.521417,-0.409277 -0.218096,-0.09542 -0.490892,-0.143144 -0.818036,-0.143144 -0.190836,0 -0.371181,0.02764 -0.541571,0.08217 -0.163573,0.04771 -0.31379,0.112517 -0.450101,0.194303 -0.129495,0.07497 -0.245033,0.159864 -0.347265,0.255282 -0.09541,0.09542 -0.170265,0.19087 -0.224793,0.286287 v -2.432926 z m -9.364803,1.614888 c -0.586134,0 -1.07696,0.112535 -1.47226,0.337447 -0.395301,0.224913 -0.678141,0.507751 -0.848527,0.848527 l 1.308962,0.470256 c 0.05453,-0.204466 0.16002,-0.354167 0.316778,-0.449585 0.156758,-0.102233 0.344141,-0.153479 0.56224,-0.153479 0.272621,0 0.480607,0.06129 0.623734,0.183968 0.149942,0.115864 0.224792,0.320331 0.224792,0.613399 v 0.194304 c -0.490717,0.03408 -0.943858,0.09185 -1.359606,0.173633 -0.408932,0.07497 -0.763619,0.180982 -1.063501,0.317293 -0.293068,0.13631 -0.524661,0.313136 -0.69505,0.531233 -0.16357,0.211282 -0.245461,0.470515 -0.245461,0.777214 0,0.231728 0.04421,0.439715 0.132807,0.623735 0.09542,0.184019 0.221515,0.34076 0.378272,0.470255 0.163574,0.129495 0.350957,0.228467 0.56224,0.296623 0.21128,0.06815 0.436351,0.101802 0.674894,0.101802 0.36804,0 0.695084,-0.05425 0.981337,-0.163297 0.286252,-0.115864 0.524883,-0.306769 0.715716,-0.572575 l 0.18397,0.613399 h 1.441773 c -0.02726,-0.109048 -0.05138,-0.242185 -0.07183,-0.398942 -0.02045,-0.163573 -0.03753,-0.333876 -0.05116,-0.51108 -0.01363,-0.177203 -0.02719,-0.357549 -0.04082,-0.541569 -0.0068,-0.190835 -0.01034,-0.368178 -0.01034,-0.53175 V 93.45015 c 0,-0.38167 -0.05073,-0.705712 -0.152961,-0.971517 -0.09542,-0.272621 -0.238596,-0.49417 -0.429432,-0.664559 -0.190836,-0.170388 -0.425948,-0.292965 -0.705385,-0.367936 -0.279434,-0.07497 -0.599956,-0.112655 -0.961181,-0.112655 z m 6.369122,0 c -0.136311,0 -0.27949,0.01708 -0.429432,0.05116 -0.143127,0.03408 -0.286306,0.08884 -0.429432,0.163814 -0.136311,0.06816 -0.265928,0.153565 -0.388607,0.255799 -0.115864,0.102232 -0.214318,0.224809 -0.296106,0.367936 l -0.204637,-0.695565 h -1.349271 v 6.716902 h 1.553908 v -2.371948 c 0.08179,0.143126 0.180242,0.269223 0.296106,0.378272 0.122679,0.102232 0.252296,0.191162 0.388607,0.266133 0.143126,0.06815 0.286305,0.118883 0.429432,0.152963 0.149942,0.03408 0.293121,0.05116 0.429432,0.05116 0.327146,0 0.627065,-0.05777 0.899686,-0.173632 0.272622,-0.122681 0.507733,-0.296503 0.705382,-0.521416 0.204467,-0.231728 0.361209,-0.511046 0.470257,-0.838191 0.109048,-0.333962 0.163814,-0.708732 0.163814,-1.12448 0,-0.408932 -0.05477,-0.777179 -0.163814,-1.104325 -0.109048,-0.333961 -0.26579,-0.616798 -0.470257,-0.848527 -0.197649,-0.231728 -0.43276,-0.409071 -0.705382,-0.53175 -0.272621,-0.129496 -0.57254,-0.194304 -0.899686,-0.194305 z m 15.048692,0 c -0.388485,-0.02045 -0.71905,0.0514 -0.991671,0.214974 -0.272621,0.163574 -0.48713,0.44993 -0.643887,0.858863 l -0.276469,-0.930693 h -1.226799 v 5.071008 h 1.554427 v -2.555916 c 0,-0.408932 0.09846,-0.698293 0.296106,-0.868681 0.197652,-0.177204 0.487527,-0.266134 0.869199,-0.266134 0.07497,0 0.142782,0.0035 0.20412,0.01034 0.06134,0 0.133189,0.007 0.214974,0.02067 z m 3.118157,0 c -0.368038,0 -0.719206,0.06181 -1.053166,0.184485 -0.327146,0.12268 -0.616505,0.299506 -0.86868,0.531234 -0.245361,0.231728 -0.439785,0.511562 -0.582911,0.838708 -0.143126,0.327146 -0.214974,0.691357 -0.214974,1.093473 0,0.415748 0.06833,0.791035 0.204639,1.124997 0.136311,0.33396 0.327216,0.616798 0.572574,0.848527 0.245359,0.231727 0.53824,0.408554 0.879018,0.531233 0.340775,0.12268 0.716063,0.183968 1.124995,0.183968 0.415748,0 0.821161,-0.09193 1.216464,-0.275952 0.402116,-0.18402 0.7362,-0.470377 1.002006,-0.858862 l -1.237136,-0.449585 c -0.09542,0.115864 -0.232071,0.207797 -0.409276,0.275952 -0.170389,0.06816 -0.374856,0.102319 -0.613399,0.102319 -0.143127,0 -0.282787,-0.0206 -0.419095,-0.0615 -0.136311,-0.04771 -0.25889,-0.11552 -0.367938,-0.204121 -0.102232,-0.0886 -0.190645,-0.198134 -0.265617,-0.327629 -0.06815,-0.136311 -0.109355,-0.293052 -0.122989,-0.470256 h 3.752225 c 0.02726,-0.449825 -0.01694,-0.861763 -0.132807,-1.236616 -0.109048,-0.374855 -0.27635,-0.695377 -0.501261,-0.961182 -0.224915,-0.272622 -0.504233,-0.484128 -0.838193,-0.63407 -0.333962,-0.156757 -0.708731,-0.235128 -1.124479,-0.235128 z m -9.743074,0.143144 v 1.185974 h 0.961181 v 3.885034 h 1.564245 v -5.071008 z m 9.783897,1.012341 c 0.3067,0 0.565933,0.08541 0.777213,0.255798 0.211283,0.163574 0.3233,0.408727 0.336931,0.735873 h -2.310452 c 0.04771,-0.347592 0.184364,-0.599786 0.409278,-0.756543 0.231728,-0.156757 0.493964,-0.235128 0.78703,-0.235128 z m -18.698599,0.05116 c 0.149942,0 0.293121,0.03416 0.429432,0.102319 0.136311,0.06134 0.255884,0.156792 0.358116,0.286288 0.102233,0.122679 0.180602,0.275901 0.235128,0.45992 0.06134,0.184019 0.09199,0.392006 0.09199,0.623734 0,0.238544 -0.03064,0.449534 -0.09199,0.633553 -0.05452,0.177205 -0.132893,0.327423 -0.235128,0.450102 -0.102232,0.12268 -0.221805,0.214612 -0.358116,0.275952 -0.136311,0.06134 -0.27949,0.09198 -0.429432,0.09198 -0.3067,0 -0.572455,-0.116054 -0.797367,-0.347782 -0.218098,-0.238543 -0.327112,-0.616834 -0.327112,-1.134815 0,-0.25899 0.03064,-0.480539 0.09199,-0.664558 0.06134,-0.18402 0.14323,-0.333721 0.245462,-0.449585 0.102232,-0.115866 0.221808,-0.197757 0.358119,-0.245463 0.13631,-0.05453 0.278971,-0.08165 0.428913,-0.08165 z m -5.131988,1.758549 v 0.122473 c 0,0.231728 -0.02712,0.426153 -0.08165,0.58291 -0.05452,0.149941 -0.129376,0.268999 -0.224793,0.357601 -0.09542,0.0886 -0.207952,0.15341 -0.337447,0.194303 -0.129495,0.03408 -0.272674,0.05116 -0.429432,0.05116 -0.204465,0 -0.374769,-0.04773 -0.51108,-0.143144 -0.13631,-0.102232 -0.204636,-0.235369 -0.204636,-0.398942 0,-0.13631 0.0412,-0.245325 0.122988,-0.327112 0.0886,-0.0886 0.21118,-0.15993 0.367938,-0.214457 0.156755,-0.06134 0.344141,-0.109063 0.56224,-0.143143 0.224911,-0.03408 0.470064,-0.0612 0.735869,-0.08165 z"
         transform="matrix(0.97404116,0,0,0.97404116,1.4373754,2.3304236)" />
      <path
         id="path1445"
         style="font-style:normal;font-variant:normal;font-weight:bold;font-stretch:normal;font-family:'Atkinson Hyperlegible';-inkscape-font-specification:'Atkinson Hyperlegible Bold';fill:#00193f;fill-opacity:1;stroke-width:0.248949"
         d="m 47.920995,81.735894 v 6.651766 h 1.523639 v -5.22779 l 1.573471,5.22779 h 1.294617 l 1.583035,-5.22779 v 5.22779 h 1.533705 v -6.651766 h -2.360205 l -1.403843,4.769742 -1.384211,-4.769742 z m 10.804402,1.573471 c -0.345207,0 -0.676975,0.05335 -0.995626,0.159562 -0.312016,0.09958 -0.590938,0.255176 -0.836566,0.467612 -0.238993,0.212435 -0.431294,0.481578 -0.577344,0.806869 -0.139411,0.325292 -0.209393,0.710401 -0.209393,1.155188 0,0.444787 0.06999,0.83282 0.209393,1.164751 0.14605,0.325292 0.338351,0.594435 0.577344,0.80687 0.245628,0.212436 0.52455,0.371461 0.836566,0.477679 0.318651,0.106217 0.650419,0.159562 0.995626,0.159562 0.338568,0 0.663979,-0.05335 0.975995,-0.159562 0.318653,-0.106218 0.597576,-0.265243 0.836566,-0.477679 0.238989,-0.212435 0.431293,-0.481578 0.577343,-0.80687 0.14605,-0.331931 0.218958,-0.719964 0.218958,-1.164751 0,-0.444787 -0.07291,-0.829896 -0.218958,-1.155188 -0.14605,-0.325291 -0.338354,-0.594434 -0.577343,-0.806869 -0.23899,-0.212436 -0.517913,-0.368033 -0.836566,-0.467612 -0.312016,-0.106218 -0.637427,-0.159562 -0.975995,-0.159562 z m 5.705973,0 c -0.345209,0 -0.676974,0.05335 -0.995625,0.159562 -0.312016,0.09958 -0.590941,0.255176 -0.836569,0.467612 -0.23899,0.212435 -0.431294,0.481578 -0.577342,0.806869 -0.13941,0.325292 -0.209393,0.710401 -0.209393,1.155188 0,0.444787 0.06999,0.83282 0.209393,1.164751 0.146048,0.325292 0.338352,0.594435 0.577342,0.80687 0.245628,0.212436 0.524553,0.371461 0.836569,0.477679 0.318651,0.106217 0.650416,0.159562 0.995625,0.159562 0.338568,0 0.663979,-0.05335 0.975995,-0.159562 0.318652,-0.106218 0.597577,-0.265243 0.836567,-0.477679 0.238989,-0.212435 0.431293,-0.481578 0.57734,-0.80687 0.14605,-0.331931 0.218958,-0.719964 0.218958,-1.164751 0,-0.444787 -0.07291,-0.829896 -0.218958,-1.155188 -0.146047,-0.325291 -0.338351,-0.594434 -0.57734,-0.806869 -0.23899,-0.212436 -0.517915,-0.368033 -0.836567,-0.467612 -0.312016,-0.106218 -0.637427,-0.159562 -0.975995,-0.159562 z m 6.382975,0 c -0.185879,0 -0.361542,0.02642 -0.527508,0.07953 -0.159328,0.04647 -0.305646,0.109597 -0.438418,0.18926 -0.126134,0.07302 -0.238672,0.156216 -0.338251,0.249158 -0.09293,0.09294 -0.166349,0.185915 -0.219462,0.278856 l -0.189258,-0.657378 h -1.324313 v 4.938868 h 1.513571 v -2.538895 c 2e-6,-0.451427 0.07341,-0.790048 0.219462,-1.015761 0.14605,-0.232351 0.377983,-0.34882 0.696635,-0.34882 0.179244,0 0.318706,0.03327 0.418284,0.09966 0.10622,0.06639 0.182556,0.15936 0.229024,0.278856 0.05311,0.112856 0.08296,0.248891 0.08959,0.408217 0.01328,0.152688 0.02012,0.315645 0.02012,0.488249 v 2.628492 h 1.513574 v -3.007011 c 0,-0.331931 -0.02642,-0.627494 -0.07953,-0.886399 -0.05311,-0.258906 -0.146086,-0.474704 -0.278858,-0.647308 -0.126134,-0.179242 -0.295444,-0.311847 -0.507879,-0.39815 -0.212434,-0.09294 -0.478149,-0.139427 -0.796803,-0.139427 z m -12.088948,1.174819 c 0.146049,0 0.282084,0.02692 0.408217,0.08004 0.132773,0.04647 0.245814,0.125732 0.338753,0.238588 0.09958,0.106218 0.175914,0.252537 0.229025,0.438418 0.05975,0.179242 0.0896,0.398468 0.0896,0.657374 0,0.517812 -0.10276,0.886282 -0.308555,1.105357 -0.199157,0.219073 -0.451661,0.328184 -0.757037,0.328184 -0.312014,0 -0.570873,-0.109111 -0.776669,-0.328184 -0.19916,-0.219075 -0.298486,-0.587545 -0.298486,-1.105357 0,-0.258906 0.02642,-0.478132 0.07953,-0.657374 0.05975,-0.185881 0.136084,-0.3322 0.229023,-0.438418 0.09958,-0.112858 0.215546,-0.192119 0.348318,-0.238588 0.132772,-0.05311 0.272235,-0.08004 0.418284,-0.08004 z m 5.705973,0 c 0.146049,0 0.282082,0.02692 0.408215,0.08004 0.132773,0.04647 0.245814,0.125732 0.338753,0.238588 0.09958,0.106218 0.175914,0.252537 0.229027,0.438418 0.05975,0.179242 0.08959,0.398468 0.08959,0.657374 0,0.517812 -0.102756,0.886282 -0.308552,1.105357 -0.19916,0.219073 -0.451664,0.328184 -0.757038,0.328184 -0.312016,0 -0.570872,-0.109111 -0.77667,-0.328184 -0.199158,-0.219075 -0.298989,-0.587545 -0.298989,-1.105357 0,-0.258906 0.02692,-0.478132 0.08004,-0.657374 0.05975,-0.185881 0.136081,-0.3322 0.229023,-0.438418 0.09958,-0.112858 0.215546,-0.192119 0.348317,-0.238588 0.132773,-0.05311 0.272235,-0.08004 0.418284,-0.08004 z m 8.115506,4.339377 c -0.252267,0 -0.464637,0.08662 -0.637242,0.259225 -0.172604,0.172604 -0.25872,0.384973 -0.25872,0.637241 0,0.245628 0.08612,0.457998 0.25872,0.637241 0.172605,0.172606 0.384975,0.258722 0.637242,0.258722 0.252267,0 0.464637,-0.08611 0.637242,-0.258722 0.172604,-0.179243 0.259226,-0.391613 0.259226,-0.637241 0,-0.252268 -0.08662,-0.464637 -0.259226,-0.637241 -0.172605,-0.172605 -0.384975,-0.259225 -0.637242,-0.259225 z m -24.59568,0.381035 v 1.384212 h 3.206338 l -3.355833,4.062536 v 1.205019 h 5.546412 v -1.384211 h -3.475129 l 3.326136,-4.06304 v -1.204516 z m 17.605662,0 v 6.651767 h 1.513573 v -2.539399 c 0,-0.451426 0.07291,-0.790047 0.218958,-1.01576 0.146049,-0.232351 0.378485,-0.348317 0.697139,-0.348317 0.179241,0 0.318704,0.03327 0.418282,0.09966 0.10622,0.06639 0.182558,0.15936 0.229026,0.278855 0.05311,0.112856 0.08296,0.248891 0.08959,0.408217 0.01328,0.152688 0.01964,0.315142 0.01964,0.487746 v 2.628995 h 1.513573 v -3.007514 c 0,-0.331931 -0.02642,-0.626991 -0.07953,-0.885896 -0.05311,-0.258906 -0.146083,-0.474703 -0.278855,-0.647307 -0.126134,-0.179244 -0.295445,-0.312351 -0.507882,-0.398653 -0.212434,-0.09294 -0.478149,-0.139428 -0.796801,-0.139428 -0.185882,0 -0.361545,0.02692 -0.527511,0.08004 -0.159328,0.04647 -0.305646,0.109597 -0.438417,0.18926 -0.126134,0.07302 -0.238673,0.155713 -0.338251,0.248654 -0.09293,0.09294 -0.165846,0.185915 -0.218958,0.278856 v -2.369776 z m -9.121703,1.572969 c -0.570919,0 -1.049003,0.109613 -1.434043,0.328687 -0.385039,0.219075 -0.660536,0.494569 -0.8265,0.8265 l 1.274984,0.458049 c 0.05311,-0.199158 0.155866,-0.344973 0.308554,-0.437914 0.152689,-0.09958 0.335207,-0.149495 0.547645,-0.149495 0.265544,0 0.468132,0.0597 0.607542,0.179192 0.14605,0.112857 0.218958,0.312016 0.218958,0.597476 v 0.189259 c -0.47798,0.0332 -0.919358,0.08947 -1.324313,0.169126 -0.398317,0.07302 -0.743797,0.176285 -1.035893,0.309056 -0.285461,0.132773 -0.511041,0.305009 -0.677007,0.517444 -0.159325,0.205796 -0.23909,0.4583 -0.23909,0.757039 0,0.225712 0.04306,0.4283 0.12936,0.607542 0.09294,0.179243 0.215764,0.331914 0.368452,0.458049 0.159327,0.126133 0.341846,0.222536 0.547644,0.288922 0.205797,0.06639 0.425024,0.09916 0.657375,0.09916 0.358487,0 0.67704,-0.05284 0.955863,-0.159059 0.278822,-0.112856 0.511257,-0.298804 0.697136,-0.55771 l 0.179196,0.597475 h 1.404345 c -0.02655,-0.106218 -0.05005,-0.235898 -0.06997,-0.388586 -0.01992,-0.159326 -0.03656,-0.325208 -0.04983,-0.497812 -0.01328,-0.172604 -0.02648,-0.348268 -0.03976,-0.527511 -0.0066,-0.185881 -0.01008,-0.35862 -0.01008,-0.517947 v -1.085221 c 0,-0.371763 -0.04941,-0.687393 -0.14899,-0.946298 -0.09294,-0.265545 -0.232403,-0.481343 -0.418285,-0.647308 -0.185882,-0.165965 -0.41489,-0.28536 -0.687073,-0.358386 -0.272181,-0.07302 -0.584382,-0.109729 -0.93623,-0.109729 z m 6.203786,0 c -0.132772,0 -0.272235,0.01664 -0.418284,0.04983 -0.139411,0.03319 -0.278874,0.08653 -0.418285,0.159562 -0.132772,0.06639 -0.259024,0.149579 -0.378519,0.249158 -0.112855,0.09958 -0.208755,0.218974 -0.288419,0.358385 L 60.93611,90.916994 h -1.314247 v 6.542539 h 1.513571 v -2.310375 c 0.07967,0.139411 0.175564,0.262234 0.288419,0.368451 0.119495,0.09958 0.245747,0.186201 0.378519,0.259226 0.139411,0.06638 0.278874,0.115796 0.418285,0.148991 0.146049,0.0332 0.285512,0.04983 0.418284,0.04983 0.318655,0 0.610787,-0.05627 0.876331,-0.169126 0.265545,-0.119495 0.494553,-0.288805 0.687071,-0.507879 0.199161,-0.225713 0.351833,-0.49778 0.45805,-0.816434 0.106217,-0.325291 0.159563,-0.690334 0.159563,-1.095289 0,-0.398316 -0.05335,-0.757004 -0.159563,-1.075658 -0.106217,-0.325291 -0.258889,-0.600787 -0.45805,-0.8265 -0.192518,-0.225712 -0.421526,-0.398452 -0.687071,-0.517947 -0.265544,-0.126134 -0.557676,-0.189259 -0.876331,-0.18926 z m 14.658046,0 c -0.3784,-0.01992 -0.700384,0.05007 -0.965929,0.209393 -0.265544,0.159327 -0.474484,0.438251 -0.627172,0.836567 l -0.269292,-0.906532 h -1.194952 v 4.93937 h 1.514076 v -2.489567 c 0,-0.398318 0.0959,-0.680166 0.288419,-0.846131 0.19252,-0.172604 0.47487,-0.259225 0.846635,-0.259225 0.07302,0 0.139075,0.0034 0.198822,0.01006 0.05975,0 0.129731,0.0068 0.209393,0.02013 z m 3.037214,0 c -0.358484,0 -0.700537,0.06021 -1.025827,0.179696 -0.318655,0.119495 -0.600503,0.291731 -0.84613,0.517443 -0.238993,0.225712 -0.428369,0.498283 -0.567781,0.816937 -0.13941,0.318652 -0.209393,0.673409 -0.209393,1.065087 0,0.404956 0.06656,0.770501 0.199328,1.095793 0.132771,0.325292 0.31872,0.600787 0.55771,0.8265 0.238989,0.225713 0.524267,0.397948 0.856199,0.517444 0.331929,0.119495 0.697475,0.179192 1.095791,0.179192 0.404956,0 0.799845,-0.08954 1.184886,-0.268788 0.391679,-0.179244 0.717091,-0.458167 0.975996,-0.836568 l -1.205022,-0.437915 c -0.09294,0.112858 -0.226047,0.202403 -0.398652,0.26879 -0.165965,0.06639 -0.365125,0.09966 -0.597475,0.09966 -0.139411,0 -0.275447,-0.02007 -0.408216,-0.0599 -0.132772,-0.04647 -0.252169,-0.112521 -0.358386,-0.198823 -0.09958,-0.0863 -0.185697,-0.19299 -0.258723,-0.319124 -0.06638,-0.132772 -0.106516,-0.285444 -0.119796,-0.458048 h 3.654822 c 0.02655,-0.438148 -0.01649,-0.839392 -0.12936,-1.204516 C 82.627955,92.1953 82.464997,91.8831 82.245923,91.624194 82.026848,91.358649 81.75478,91.152634 81.42949,91.006584 81.104196,90.853895 80.739155,90.77756 80.334201,90.77756 Z m -9.490156,0.139428 v 1.155187 h 0.93623 v 3.784183 h 1.52364 v -4.93937 z m 9.529918,0.986062 c 0.298738,0 0.551242,0.08319 0.757038,0.249157 0.205799,0.159327 0.314907,0.398117 0.328185,0.716771 H 79.20871 c 0.04647,-0.338569 0.179578,-0.584216 0.398654,-0.736904 0.225712,-0.152689 0.481141,-0.229024 0.766599,-0.229024 z m -18.213204,0.04983 c 0.14605,0 0.285512,0.03327 0.418283,0.09966 0.132773,0.05975 0.249242,0.152721 0.348821,0.278855 0.09958,0.119495 0.175914,0.268739 0.229024,0.447982 0.05975,0.179242 0.0896,0.381829 0.0896,0.607542 0,0.232351 -0.02984,0.437865 -0.0896,0.617107 -0.0531,0.172604 -0.129443,0.318923 -0.229024,0.438418 -0.09958,0.119495 -0.216048,0.209041 -0.348821,0.268789 -0.132771,0.05975 -0.272233,0.08959 -0.418283,0.08959 -0.298738,0 -0.557596,-0.113041 -0.776668,-0.338754 -0.212438,-0.232352 -0.318622,-0.600822 -0.318622,-1.105357 0,-0.252266 0.02985,-0.468064 0.0896,-0.647307 0.05975,-0.179242 0.139512,-0.325058 0.23909,-0.437915 0.09958,-0.112858 0.21605,-0.192622 0.348823,-0.239091 0.132772,-0.05311 0.27173,-0.07953 0.41778,-0.07953 z m -4.998768,1.712898 v 0.119295 c 0,0.225712 -0.02642,0.415089 -0.07953,0.567778 -0.05311,0.146049 -0.126018,0.262016 -0.218958,0.348318 -0.09294,0.0863 -0.202553,0.149428 -0.328687,0.189259 -0.126133,0.0332 -0.265596,0.04983 -0.418284,0.04983 -0.199157,0 -0.365041,-0.04649 -0.497812,-0.139428 -0.132773,-0.09958 -0.199325,-0.229259 -0.199325,-0.388586 0,-0.132773 0.04013,-0.238957 0.119796,-0.318621 0.0863,-0.0863 0.205698,-0.155778 0.358386,-0.20889 0.152686,-0.05975 0.335207,-0.106232 0.547645,-0.139428 0.219073,-0.03319 0.457862,-0.05961 0.716768,-0.07953 z" />
    </g>
  </g>
</svg>
